<svg id="arrow-top" xmlns="http://www.w3.org/2000/svg" width="16.828" height="21.577" viewBox="0 0 16.828 21.577">
  <g id="Vector" fill="none" stroke-linecap="round" stroke-linejoin="round">
    <path d="M15.414,8l-7-7-7,7" stroke="none"/>
    <path d="M 0.4140617847442627 7.999900817871094 C 0.4140608310699463 7.935935020446777 0.4201610088348389 7.871970176696777 0.432361364364624 7.808953285217285 C 0.4445617198944092 7.745936393737793 0.4628622531890869 7.68386697769165 0.4872629642486572 7.623692989349365 C 0.5116636753082275 7.56351900100708 0.5421645641326904 7.505239486694336 0.5787665843963623 7.449802398681641 C 0.6153686046600342 7.394366264343262 0.6580708622932434 7.341772079467773 0.7068732380867004 7.292967319488525 L 7.706832408905029 0.2928375899791718 C 7.753706455230713 0.2459611296653748 7.804755687713623 0.2042202353477478 7.859105587005615 0.1679770052433014 C 7.913456439971924 0.131733775138855 7.971107959747314 0.1009882017970085 8.031186103820801 0.0761021226644516 C 8.091264724731445 0.05121604353189468 8.153770446777344 0.03218957409262657 8.217828750610352 0.01938460953533649 C 8.281887054443359 0.006579645443707705 8.347497940063477 -3.813803459706833e-06 8.413785934448242 -3.813803459706833e-06 C 8.480075836181641 -3.813803459706833e-06 8.545686721801758 0.006579645443707705 8.609745025634766 0.01938460953533649 C 8.673802375793457 0.03218957409262657 8.736308097839355 0.05121604353189468 8.796385765075684 0.0761021226644516 C 8.856464385986328 0.1009882017970085 8.914113998413086 0.131733775138855 8.968462944030762 0.1679770052433014 C 9.022812843322754 0.2042202353477478 9.073859214782715 0.2459611296653748 9.120731353759766 0.2928375899791718 L 16.12070083618164 7.292967319488525 C 16.16949653625488 7.341766357421875 16.21219635009766 7.394359588623047 16.24879455566406 7.4497971534729 C 16.28539657592773 7.505235195159912 16.31589889526367 7.563518047332764 16.34029960632324 7.623695373535156 C 16.36470222473145 7.683872699737549 16.38300514221191 7.745945453643799 16.39520645141602 7.808962821960449 C 16.40740966796875 7.8719801902771 16.41351127624512 7.935942649841309 16.41351127624512 7.999900817871094 C 16.41351127624512 8.063873291015625 16.40741348266602 8.127841949462891 16.39521217346191 8.190859794616699 C 16.38301277160645 8.253877639770508 16.36471366882324 8.315945625305176 16.34031295776367 8.376118659973145 C 16.31591033935547 8.436290740966797 16.28540802001953 8.494568824768066 16.24880218505859 8.550004005432129 C 16.21219825744629 8.605440139770508 16.16949081420898 8.658035278320312 16.12067985534668 8.706845283508301 C 16.0230712890625 8.804452896118164 15.91029930114746 8.877656936645508 15.78994846343994 8.926459312438965 C 15.66959667205811 8.975261688232422 15.54166507720947 8.999662399291992 15.41373252868652 8.999660491943359 C 15.28580093383789 8.999658584594727 15.15786933898926 8.975254058837891 15.03751945495605 8.926448822021484 C 14.91716766357422 8.877642631530762 14.80439949035645 8.804434776306152 14.70679187774658 8.706825256347656 L 8.413785934448242 2.413667440414429 L 2.120781660079956 8.706825256347656 C 2.023175001144409 8.804434776306152 1.91040563583374 8.877642631530762 1.790054440498352 8.926448822021484 C 1.669704079627991 8.975254058837891 1.5417720079422 8.999658584594727 1.413840770721436 8.999660491943359 C 1.285909652709961 8.999662399291992 1.15797746181488 8.975261688232422 1.037625312805176 8.926459312438965 C 0.9172740578651428 8.877656936645508 0.8045027852058411 8.804452896118164 0.706893265247345 8.706845283508301 C 0.6580889225006104 8.658041954040527 0.6153838634490967 8.605446815490723 0.578779935836792 8.550009727478027 C 0.5421760082244873 8.494572639465332 0.5116732120513916 8.436291694641113 0.4872705936431885 8.376115798950195 C 0.4628679752349854 8.315938949584961 0.4445655345916748 8.253868103027344 0.4323642253875732 8.190850257873535 C 0.4201629161834717 8.12783145904541 0.4140627384185791 8.063865661621094 0.4140617847442627 7.999900817871094 Z" stroke="none" fill="#080031"/>
  </g>
  <g id="Vector-2" data-name="Vector" transform="translate(7.433 0.168)" fill="none" stroke-linecap="round" stroke-linejoin="round">
    <path d="M1,20.409V1" stroke="none"/>
    <path d="M 0 20.4086971282959 L 0 0.999767005443573 C 0 0.8617268800735474 0.02797591686248779 0.7302214503288269 0.07856721431016922 0.6106109023094177 C 0.1291585117578506 0.4910003244876862 0.202365055680275 0.3832846283912659 0.292826384305954 0.2928239405155182 C 0.3832877278327942 0.2023632675409317 0.4910037219524384 0.129157617688179 0.6106137633323669 0.07856709510087967 C 0.7302238941192627 0.0279766321182251 0.8617280721664429 1.310994889536232e-06 0.9997656941413879 1.310994889536232e-06 C 1.137803316116333 1.310994889536232e-06 1.269307494163513 0.0279766321182251 1.388917565345764 0.07856709510087967 C 1.508527636528015 0.129157617688179 1.616243720054626 0.2023632675409317 1.7067049741745 0.2928239405155182 C 1.797166347503662 0.3832846283912659 1.870372891426086 0.4910003244876862 1.920964121818542 0.6106109023094177 C 1.971555471420288 0.7302214503288269 1.999531388282776 0.8617268800735474 1.999531388282776 0.999767005443573 L 1.999531388282776 20.4086971282959 C 1.999531388282776 20.5467357635498 1.971555471420288 20.67824172973633 1.920964121818542 20.79785346984863 C 1.870372891426086 20.9174633026123 1.797166347503662 21.02517890930176 1.7067049741745 21.11563873291016 C 1.616243720054626 21.20610046386719 1.508527636528015 21.27930641174316 1.388917565345764 21.32989692687988 C 1.269307494163513 21.3804874420166 1.137803316116333 21.40846252441406 0.9997656941413879 21.40846252441406 C 0.8617280721664429 21.40846252441406 0.7302238941192627 21.3804874420166 0.6106137633323669 21.32989692687988 C 0.4910037219524384 21.27930641174316 0.3832877278327942 21.20610046386719 0.292826384305954 21.11563873291016 C 0.202365055680275 21.02517890930176 0.1291585117578506 20.9174633026123 0.07856721431016922 20.79785346984863 C 0.02797591686248779 20.67824172973633 0 20.5467357635498 0 20.4086971282959 Z" stroke="none" fill="#080031"/>
  </g>
</svg>
