<svg xmlns="http://www.w3.org/2000/svg" width="135.486" height="70" viewBox="0 0 135.486 70">
  <g id="logo" transform="translate(-1478 -67)">
    <g id="Emdad_logo_Source" transform="translate(1478 67)">
      <g id="Group_56563" data-name="Group 56563">
        <g id="Group_56557" data-name="Group 56557" transform="translate(111.509)">
          <path id="Path_108525" data-name="Path 108525" d="M605.631,55.568l0,.024h0v-.024c2.652-21.182,8.934-33.272,8.934-33.272l-8.934-5.412Z" transform="translate(-605.628 -13.775)" fill="#fff"/>
          <path id="Path_108526" data-name="Path 108526" d="M633.058,0a2.137,2.137,0,1,0,1.089.3A2.137,2.137,0,0,0,633.058,0Z" transform="translate(-626.262 -0.001)" fill="#fff"/>
          <path id="Path_108527" data-name="Path 108527" d="M688.378,53.492a1.893,1.893,0,1,0,1.63-.924,1.887,1.887,0,0,0-1.63.924" transform="translate(-672.925 -42.889)" fill="#fff"/>
          <path id="Path_108528" data-name="Path 108528" d="M718.552,116.632a1.613,1.613,0,1,0,3,.84v-.028a1.612,1.612,0,0,0-3-.812" transform="translate(-697.575 -94.512)" fill="#fff"/>
          <path id="Path_108530" data-name="Path 108530" d="M607.276,85.035c4.266-13.219,16.8-23.6,16.8-23.6l-5.96-7.682c-7.9,13.811-10.839,31.284-10.839,31.284" transform="translate(-606.973 -43.854)" fill="#fff"/>
          <path id="Path_108532" data-name="Path 108532" d="M606.21,131.355c7.318-9.179,20.366-13.781,20.366-13.781l-2.4-7.83c-10.385,8.614-17.969,21.611-17.969,21.611" transform="translate(-606.103 -89.538)" fill="#fff"/>
        </g>
        <g id="Group_56556" data-name="Group 56556" transform="translate(0 3.104)">
          <g id="Group_56562" data-name="Group 56562" transform="translate(0.138 43.297)">
            <path id="Path_108533" data-name="Path 108533" d="M.749,253.647H7.612v1.174H1.946v3.753H7.563v1.17H1.946v4.706H7.563v1.173H.749Z" transform="translate(-0.749 -253.347)" fill="#fff"/>
            <path id="Path_108534" data-name="Path 108534" d="M48.193,269.582h1.138v1.53a4.426,4.426,0,0,1,1.224-1.236,3.445,3.445,0,0,1,1.817-.521,3.027,3.027,0,0,1,1.224.252,2.636,2.636,0,0,1,.945.671,3.609,3.609,0,0,1,.635,1.2A4.237,4.237,0,0,1,56.6,269.9a3.354,3.354,0,0,1,1.834-.54,2.87,2.87,0,0,1,1.622.463,2.766,2.766,0,0,1,1.043,1.294,6.926,6.926,0,0,1,.341,2.493v4.834H60.276V273.6a6.313,6.313,0,0,0-.2-1.959,1.757,1.757,0,0,0-.695-.858,2.055,2.055,0,0,0-1.172-.327,2.557,2.557,0,0,0-1.513.488,2.82,2.82,0,0,0-1,1.3,8.247,8.247,0,0,0-.316,2.719v3.467h-1.14v-4.533a7.9,7.9,0,0,0-.2-2.179,1.829,1.829,0,0,0-.7-.919,2.019,2.019,0,0,0-1.18-.347,2.552,2.552,0,0,0-1.478.476,2.823,2.823,0,0,0-1.018,1.283,6.923,6.923,0,0,0-.331,2.467v3.752H48.193Z" transform="translate(-39.458 -266.163)" fill="#fff"/>
            <path id="Path_108535" data-name="Path 108535" d="M135.77,256.307a3.435,3.435,0,0,0-3.038,1.781,3.582,3.582,0,0,0,0,3.578,3.489,3.489,0,0,0,1.288,1.33,3.373,3.373,0,0,0,1.737.477,3.561,3.561,0,0,0,1.772-.473,3.292,3.292,0,0,0,1.288-1.276,3.645,3.645,0,0,0,.451-1.815,3.522,3.522,0,0,0-1.011-2.568,3.355,3.355,0,0,0-2.493-1.033m4.555-4.291v12.277H139.2V262.77a4.848,4.848,0,0,1-1.608,1.311,4.488,4.488,0,0,1-5.161-.924,4.571,4.571,0,0,1-1.331-3.318,4.489,4.489,0,0,1,1.342-3.273,4.388,4.388,0,0,1,3.233-1.358,4.175,4.175,0,0,1,1.975.463,4.493,4.493,0,0,1,1.55,1.393v-5.049Z" transform="translate(-107.1 -252.016)" fill="#fff"/>
            <path id="Path_108536" data-name="Path 108536" d="M197.712,270.454a3.43,3.43,0,0,0-3.036,1.781,3.587,3.587,0,0,0,0,3.578,3.506,3.506,0,0,0,1.289,1.33,3.371,3.371,0,0,0,1.736.477,3.566,3.566,0,0,0,1.773-.473,3.311,3.311,0,0,0,1.289-1.276,3.667,3.667,0,0,0,.449-1.815,3.512,3.512,0,0,0-1.012-2.568,3.348,3.348,0,0,0-2.492-1.033m4.554-.872v8.858h-1.122v-1.523a4.878,4.878,0,0,1-1.607,1.311,4.365,4.365,0,0,1-1.95.441,4.318,4.318,0,0,1-3.211-1.364,4.57,4.57,0,0,1-1.333-3.318,4.487,4.487,0,0,1,1.345-3.273,4.38,4.38,0,0,1,3.232-1.359,4.178,4.178,0,0,1,1.976.463,4.51,4.51,0,0,1,1.549,1.393v-1.63Z" transform="translate(-157.637 -266.163)" fill="#fff"/>
            <path id="Path_108537" data-name="Path 108537" d="M259.667,256.307a3.433,3.433,0,0,0-3.038,1.781,3.588,3.588,0,0,0,0,3.578,3.507,3.507,0,0,0,1.29,1.33,3.366,3.366,0,0,0,1.736.477,3.573,3.573,0,0,0,1.773-.473,3.309,3.309,0,0,0,1.288-1.276,3.662,3.662,0,0,0,.451-1.815,3.515,3.515,0,0,0-1.012-2.568,3.352,3.352,0,0,0-2.493-1.033m4.554-4.291v12.277H263.1V262.77a4.875,4.875,0,0,1-1.608,1.311,4.488,4.488,0,0,1-5.161-.924A4.577,4.577,0,0,1,255,259.84a4.49,4.49,0,0,1,1.343-3.273,4.381,4.381,0,0,1,3.231-1.358,4.175,4.175,0,0,1,1.976.463,4.525,4.525,0,0,1,1.551,1.393v-5.049Z" transform="translate(-208.185 -252.016)" fill="#fff"/>
          </g>
          <g id="Group_56561" data-name="Group 56561" transform="translate(0 60.601)">
            <path id="Path_108564" data-name="Path 108564" d="M174.311,10.836h-3.533c-.279,0-.518-.008-.718-.027a3.113,3.113,0,0,1-.511-.078,1.151,1.151,0,0,1-.342-.145.617.617,0,0,1-.2-.208.759.759,0,0,1-.1-.274,2.188,2.188,0,0,1-.025-.349,2.235,2.235,0,0,1,.011-.254,2.087,2.087,0,0,1,.032-.219l-.451-.043c-.019.119-.035.242-.047.368s-.019.233-.019.322a2.047,2.047,0,0,0,.031.369,1.136,1.136,0,0,0,.114.336,1,1,0,0,0,.223.284,1.294,1.294,0,0,0,.364.221,2.391,2.391,0,0,0,.533.145,4.711,4.711,0,0,0,.731.049h4.4V8.325h-.5Z" transform="translate(-137.401 -6.792)" fill="#fff"/>
            <path id="Path_108565" data-name="Path 108565" d="M188.44,1.078a.3.3,0,0,0,.227-.093.311.311,0,0,0,.089-.226.315.315,0,0,0-.089-.223.3.3,0,0,0-.227-.092.312.312,0,0,0-.224.092.3.3,0,0,0-.1.223.3.3,0,0,0,.1.226.311.311,0,0,0,.224.093" transform="translate(-153.484 -0.362)" fill="#fff"/>
            <path id="Path_108566" data-name="Path 108566" d="M182.966,1.078a.3.3,0,0,0,.224-.093.306.306,0,0,0,.092-.226.309.309,0,0,0-.092-.223.3.3,0,0,0-.224-.092.313.313,0,0,0-.224.092.3.3,0,0,0-.1.223.3.3,0,0,0,.1.226.312.312,0,0,0,.224.093" transform="translate(-149.017 -0.362)" fill="#fff"/>
            <rect id="Rectangle_14315" data-name="Rectangle 14315" width="0.497" height="4.541" transform="translate(38.808 0.003)" fill="#fff"/>
            <path id="Path_108567" data-name="Path 108567" d="M254.726,28.713a.3.3,0,0,0-.225.093.323.323,0,0,0,0,.448.3.3,0,0,0,.225.094.315.315,0,0,0,.226-.094.316.316,0,0,0,0-.448.313.313,0,0,0-.226-.093" transform="translate(-207.569 -23.426)" fill="#fff"/>
            <path id="Path_108568" data-name="Path 108568" d="M270.611,1.078a.314.314,0,0,0,.316-.318.313.313,0,0,0-.091-.223.308.308,0,0,0-.225-.092.3.3,0,0,0-.223.092.3.3,0,0,0-.1.223.293.293,0,0,0,.1.226.3.3,0,0,0,.223.093" transform="translate(-220.526 -0.362)" fill="#fff"/>
            <path id="Path_108569" data-name="Path 108569" d="M231.311,4.044h-1.462a.429.429,0,0,1-.318-.124.966.966,0,0,1-.207-.334,2.831,2.831,0,0,1-.134-.478c-.033-.179-.063-.365-.089-.557a2.031,2.031,0,0,0-.146-.519,1.26,1.26,0,0,0-.27-.395,1.167,1.167,0,0,0-.4-.251,1.425,1.425,0,0,0-.515-.087,2.707,2.707,0,0,0-.5.043c-.152.031-.3.068-.451.112v.419c.058-.014.118-.03.185-.044l.2-.039c.064-.01.129-.019.19-.027s.12-.009.168-.009a1.169,1.169,0,0,1,.588.132,1.029,1.029,0,0,1,.355.343,1.609,1.609,0,0,1,.193.475c.041.175.076.351.1.526a1.552,1.552,0,0,0,.048.223,1.414,1.414,0,0,0,.076.223,1.225,1.225,0,0,0,.111.2.719.719,0,0,0,.149.164H226.07a2.1,2.1,0,0,1-1.038-.228c0-.036.009-.073.013-.112s.006-.074.006-.115V1.537h-.5V3.431a1.372,1.372,0,0,1-.029.305.4.4,0,0,1-.087.186.3.3,0,0,1-.152.094.858.858,0,0,1-.237.027h-4.56V1.533h-.5V4.044a3.75,3.75,0,0,1-.056.692,1.286,1.286,0,0,1-.211.516,1.144,1.144,0,0,1-.423.358,2.47,2.47,0,0,1-.7.214l.064.47a3.6,3.6,0,0,0,.758-.2,1.682,1.682,0,0,0,.546-.338,1.479,1.479,0,0,0,.348-.511,2.365,2.365,0,0,0,.162-.708h4.706a.893.893,0,0,0,.425-.087.7.7,0,0,0,.27-.233,1.637,1.637,0,0,0,.227.136,1.567,1.567,0,0,0,.257.1,2.246,2.246,0,0,0,.314.064c.042,0,.088.007.133.01a.386.386,0,0,0,.086.009h5.915V0h-.5Z" transform="translate(-177.535)" fill="#fff"/>
            <rect id="Rectangle_14316" data-name="Rectangle 14316" width="0.497" height="4.541" transform="translate(55.677 0.003)" fill="#fff"/>
            <path id="Path_108570" data-name="Path 108570" d="M2.207,1.117h-.17L0,5.432H.584l.655-1.388H2.988L3.636,5.4l.014.03h.568l-2-4.283Zm.55,2.42H1.481L2.12,2.182Z" transform="translate(0 -0.911)" fill="#fff"/>
            <rect id="Rectangle_14317" data-name="Rectangle 14317" width="0.501" height="4.42" transform="translate(4.614 0.1)" fill="#fff"/>
            <path id="Path_108571" data-name="Path 108571" d="M43.787,1.116h-.716L41.459,2.63V1.116h-.531V5.431h.531V3.546l1.758,1.867.016.017h.7L41.707,3.06Z" transform="translate(-33.393 -0.911)" fill="#fff"/>
            <path id="Path_108572" data-name="Path 108572" d="M61.644,1.854A1.151,1.151,0,0,0,61,1.667a1.354,1.354,0,0,0-.658.165,1.668,1.668,0,0,0-.459.381V.545h-.5v4.42h.5V3.77a4.017,4.017,0,0,1,.056-.835,1.078,1.078,0,0,1,.361-.567.943.943,0,0,1,.62-.229.765.765,0,0,1,.481.143.785.785,0,0,1,.253.438,3.851,3.851,0,0,1,.041.708V4.965h.5V3.31a2.553,2.553,0,0,0-.133-.959,1.122,1.122,0,0,0-.419-.5" transform="translate(-48.444 -0.445)" fill="#fff"/>
            <path id="Path_108573" data-name="Path 108573" d="M79.619,6.638a1.54,1.54,0,0,0-1.276.611A1.75,1.75,0,0,0,78.413,9.5a1.54,1.54,0,0,0,1.23.518,1.77,1.77,0,0,0,.633-.106,1.611,1.611,0,0,0,.508-.317,1.911,1.911,0,0,0,.4-.539L81.2,9l-.426-.223-.024.043a1.886,1.886,0,0,1-.331.43,1.2,1.2,0,0,1-.367.209,1.287,1.287,0,0,1-.446.08,1.064,1.064,0,0,1-.791-.332,1.218,1.218,0,0,1-.329-.8h2.8V8.359a1.747,1.747,0,0,0-.355-1.1,1.591,1.591,0,0,0-1.312-.623M78.541,7.962a1.251,1.251,0,0,1,.329-.556,1.1,1.1,0,0,1,.755-.283,1.206,1.206,0,0,1,.507.113,1.047,1.047,0,0,1,.388.295,1.229,1.229,0,0,1,.207.431Z" transform="translate(-63.612 -5.416)" fill="#fff"/>
            <path id="Path_108574" data-name="Path 108574" d="M101.324,1.667a1.564,1.564,0,0,0-.705.159,1.676,1.676,0,0,0-.489.372V.545h-.5v4.42h.5V4.489a1.6,1.6,0,0,0,.47.386,1.515,1.515,0,0,0,.713.17,1.6,1.6,0,0,0,1.172-.493,1.643,1.643,0,0,0,.486-1.19,1.663,1.663,0,0,0-.481-1.2,1.578,1.578,0,0,0-1.166-.495m1.14,1.683a1.234,1.234,0,0,1-.16.6,1.164,1.164,0,0,1-.433.443,1.142,1.142,0,0,1-.59.158,1.129,1.129,0,0,1-.838-.349,1.193,1.193,0,0,1-.341-.869,1.243,1.243,0,0,1,.151-.613,1.13,1.13,0,0,1,.435-.43,1.209,1.209,0,0,1,.6-.161,1.143,1.143,0,0,1,.58.159,1.185,1.185,0,0,1,.434.451,1.237,1.237,0,0,1,.163.607" transform="translate(-81.282 -0.445)" fill="#fff"/>
            <path id="Path_108575" data-name="Path 108575" d="M121.2,6.778a1.366,1.366,0,0,0-.307.288V6.718h-.511V9.934h.511V8.829a4.711,4.711,0,0,1,.075-1.062.991.991,0,0,1,.267-.488.524.524,0,0,1,.352-.15.481.481,0,0,1,.192.049l.039.019.261-.422-.046-.026a.746.746,0,0,0-.832.029" transform="translate(-98.22 -5.414)" fill="#fff"/>
            <path id="Path_108576" data-name="Path 108576" d="M132.874,7.194a1.6,1.6,0,0,0-.47-.387,1.523,1.523,0,0,0-.718-.169,1.6,1.6,0,0,0-1.174.495,1.631,1.631,0,0,0-.486,1.185,1.675,1.675,0,0,0,.481,1.2,1.631,1.631,0,0,0,1.875.333,1.72,1.72,0,0,0,.493-.37v.451h.5V6.719h-.5Zm-.317.28a1.194,1.194,0,0,1,.343.869,1.235,1.235,0,0,1-.153.612,1.107,1.107,0,0,1-.435.428,1.168,1.168,0,0,1-1.616-.448,1.223,1.223,0,0,1-.163-.6,1.247,1.247,0,0,1,.161-.605,1.187,1.187,0,0,1,.431-.442,1.172,1.172,0,0,1,.593-.157,1.132,1.132,0,0,1,.839.347" transform="translate(-106.085 -5.416)" fill="#fff"/>
            <path id="Path_108577" data-name="Path 108577" d="M152.511,1.951V.794h-.5V1.951h-.548V2.4h.548V5.168h.5V2.4h.635V1.951Z" transform="translate(-123.575 -0.648)" fill="#fff"/>
          </g>
          <g id="Group_56558" data-name="Group 56558">
            <path id="Path_108560" data-name="Path 108560" d="M17.011,91.1c-.359-4.414-2.447-5.789-6.205-5.789-3.4,0-6.209,1.017-6.626,4.656H.718c.834-5.552,4.953-7.641,10.088-7.641,5.967,0,9.549,2.748,9.549,8.9v17.787H0v-3.043H17.011Z" transform="translate(0 -70.275)" fill="#fff"/>
            <rect id="Rectangle_14313" data-name="Rectangle 14313" width="3.22" height="38.736" transform="translate(26.544 0)" fill="#fff"/>
            <path id="Path_108561" data-name="Path 108561" d="M212.984,91.1c-.357-4.414-2.446-5.789-6.208-5.789-3.4,0-6.446,1.017-6.923,4.656h-3.162c.835-5.552,4.954-7.641,10.085-7.641,5.97,0,9.549,2.748,9.549,8.9v14.744H224.8v3.043H195.973v-3.043h17.011Z" transform="translate(-159.89 -70.275)" fill="#fff"/>
            <path id="Path_108562" data-name="Path 108562" d="M375.372,78.129c-6.509,0-9.2,6.327-9.2,11.341,0,4.952,2.687,11.338,9.2,11.338s9.071-5.907,9.071-11.338c0-5.014-2.568-11.341-9.071-11.341M350.959,103.2v-3.043h4.773c4.415,0,7.1-2.748,7.1-7.4V89.47c0-6.569,3.939-14.268,12.536-14.268S387.9,82.9,387.9,89.47c0,6.681-3.939,14.264-12.531,14.264a11.466,11.466,0,0,1-10.329-5.79c-1.133,2.685-3.581,5.252-8.536,5.252Z" transform="translate(-286.34 -64.46)" fill="#fff"/>
            <rect id="Rectangle_14314" data-name="Rectangle 14314" width="3.225" height="38.736" transform="translate(106.612)" fill="#fff"/>
            <path id="Path_108563" data-name="Path 108563" d="M4.584,2.884l-.416-.336-.191.5a.418.418,0,0,1-.241.076H2.479v-.78c0-1.045.516-1.045.685-1.045.107,0,.39,0,.42.475l.023.374H5.015l-.033-.429A1.794,1.794,0,0,0,3.184,0c-1.3,0-2.075.879-2.075,2.352v.769H.524L0,4.46H3.684a1.592,1.592,0,0,0,1.4-.739l.2-.309Z" transform="translate(105.207 39.481)" fill="#fff"/>
          </g>
        </g>
      </g>
    </g>
  </g>
</svg>
